<svg width="108" height="20" viewBox="0 0 108 20" fill="#F6F4E5" xmlns="http://www.w3.org/2000/svg">
  <path fill-rule="evenodd" d="M9.5 19.5a9.5 9.5 0 1 1 0-19 9.5 9.5 0 0 1 0 19m0-17C13.65 2.5 17 6 17 10s-3.35 7.5-7.5 7.5S2 14 2 10s3.35-7.5 7.5-7.5"/>
  <path d="M27 1c2.5 0 3.9.68 5.06 1.7a5 5 0 0 1 1.44 3.8c0 2.72-1.7 4.7-4.5 5l4.5 7.5H31l-5.5-9H27c2 0 3.02-.5 3.7-1.25.7-.75.8-1.25.8-2.25s-.1-1.7-.8-2.35C30.02 3.44 29 3 27 3h-3v16h-2V1z"/>
  <path d="M37 1h2v18h-2z"/>
  <path d="M51.5.5c2 0 4 .5 5.5 1.8l-1.1 1.65a7 7 0 0 0-4.4-1.45C47.35 2.5 44 6 44 10s3.35 7.5 7.5 7.5c3.4 0 6.3-2.5 7.2-5.5H48v-2h13A9.5 9.5 0 1 1 51.5.5"/>
  <path d="m51.55 19.1-.29.4a10 10 0 0 1-2.22-.32l1.24-1.78 3.76-5.4h2.45l-4.94 7.09Z"/>
  <path d="M64 1v18h-2V4.1L57.9 10h-2.5l6.3-9zM76 15.5 81 1h3v18h-2V3.5L77 19h-2L70 3.5V19h-2V1h3zM88 1h2v18h-2z"/>
  <path fill-rule="evenodd" d="M94 1h5.5c5 0 8.5 4.5 8.5 9s-3.5 9-8.5 9H94zm2 2h3.5c3.5 0 6.5 3.5 6.5 7s-3 7-6.5 7H96z"/>
</svg>
